HIERARCHY
ROOT Hips
{
  OFFSET 5.84602e-005 68.8428 3.50346
  CHANNELS 6 Xposition Yposition Zposition Zrotation Xrotation Yrotation
  JOINT Spine
  {
    OFFSET 0 8.597 -4.6522
    CHANNELS 3 Zrotation Xrotation Yrotation
    JOINT Spine1
    {
      OFFSET 0 7.8454 0.4098
      CHANNELS 3 Zrotation Xrotation Yrotation
      JOINT Spine2
      {
        OFFSET 0 9.7078 -2.1609
        CHANNELS 3 Zrotation Xrotation Yrotation
        JOINT Neck
        {
          OFFSET 0 21.8761 -0.4549
          CHANNELS 3 Zrotation Xrotation Yrotation
          JOINT Head
          {
            OFFSET 0 12.3537 3.3602
            CHANNELS 3 Zrotation Xrotation Yrotation
            End Site
            {
              OFFSET 0.0001 18.9506 0.5657
            }
          }
        }
        JOINT LeftShoulder
        {
          OFFSET 2.2086 21.1115 7.2329
          CHANNELS 3 Zrotation Xrotation Yrotation
          JOINT LeftArm
          {
            OFFSET 13.1193 3.0282 -4.8998
            CHANNELS 3 Zrotation Xrotation Yrotation
            JOINT LeftForeArm
            {
              OFFSET 27.4081 -0.0973053 -0.2375
              CHANNELS 3 Zrotation Xrotation Yrotation
              JOINT LeftHand
              {
                OFFSET 22.8641 0.0662994 -0.1369
                CHANNELS 3 Zrotation Xrotation Yrotation
                JOINT LeftHandIndex1
                {
                  OFFSET 8.8614 0.775009 2.4612
                  CHANNELS 3 Zrotation Xrotation Yrotation
                  JOINT LeftHandIndex2
                  {
                    OFFSET 3.3146 -0.808304 0.5841
                    CHANNELS 3 Zrotation Xrotation Yrotation
                    JOINT LeftHandIndex3
                    {
                      OFFSET 2.2628 -0.552002 0.3989
                      CHANNELS 3 Zrotation Xrotation Yrotation
                      End Site
                      {
                        OFFSET 1.6102 -0.4807 0.2612
                      }
                    }
                  }
                }
                JOINT LeftHandMiddle1
                {
                  OFFSET 8.9937 0.895004 0.2143
                  CHANNELS 3 Zrotation Xrotation Yrotation
                  JOINT LeftHandMiddle2
                  {
                    OFFSET 4.0984 0.0113983 -0.0242
                    CHANNELS 3 Zrotation Xrotation Yrotation
                    JOINT LeftHandMiddle3
                    {
                      OFFSET 2.2716 0.00689697 -0.0138001
                      CHANNELS 3 Zrotation Xrotation Yrotation
                      End Site
                      {
                        OFFSET 2.0404 -0.1441 0.0027
                      }
                    }
                  }
                }
                JOINT LeftHandRing1
                {
                  OFFSET 8.5234 0.597198 -2.0164
                  CHANNELS 3 Zrotation Xrotation Yrotation
                  JOINT LeftHandRing2
                  {
                    OFFSET 3.7188 -0.188293 -0.2328
                    CHANNELS 3 Zrotation Xrotation Yrotation
                    JOINT LeftHandRing3
                    {
                      OFFSET 2.1191 -0.106598 -0.1332
                      CHANNELS 3 Zrotation Xrotation Yrotation
                      End Site
                      {
                        OFFSET 1.8737 -0.2304 -0.0886
                      }
                    }
                  }
                }
                JOINT LeftHandPinky1
                {
                  OFFSET 7.9094 -0.601089 -3.4825
                  CHANNELS 3 Zrotation Xrotation Yrotation
                  JOINT LeftHandPinky2
                  {
                    OFFSET 2.2874 -0.477005 -0.6314
                    CHANNELS 3 Zrotation Xrotation Yrotation
                    JOINT LeftHandPinky3
                    {
                      OFFSET 1.6774 -0.349396 -0.4633
                      CHANNELS 3 Zrotation Xrotation Yrotation
                      End Site
                      {
                        OFFSET 1.4888 -0.4091 -0.3416
                      }
                    }
                  }
                }
                JOINT LeftHandThumb1
                {
                  OFFSET 1.833 -1.3875 1.3896
                  CHANNELS 3 Zrotation Xrotation Yrotation
                  JOINT LeftHandThumb2
                  {
                    OFFSET 3.4129 -1.121 2.5732
                    CHANNELS 3 Zrotation Xrotation Yrotation
                    JOINT LeftHandThumb3
                    {
                      OFFSET 2.2474 -0.804199 1.6192
                      CHANNELS 3 Zrotation Xrotation Yrotation
                      End Site
                      {
                        OFFSET 1.6527 -0.5689 1.1317
                      }
                    }
                  }
                }
              }
            }
          }
        }
        JOINT RightShoulder
        {
          OFFSET -2.2086 21.1115 7.2329
          CHANNELS 3 Zrotation Xrotation Yrotation
          JOINT RightArm
          {
            OFFSET -13.1216 3.0287 -4.9007
            CHANNELS 3 Zrotation Xrotation Yrotation
            JOINT RightForeArm
            {
              OFFSET -27.4081 -0.0973053 -0.2375
              CHANNELS 3 Zrotation Xrotation Yrotation
              JOINT RightHand
              {
                OFFSET -22.8641 0.0664063 -0.1369
                CHANNELS 3 Zrotation Xrotation Yrotation
                JOINT RightHandIndex1
                {
                  OFFSET -8.8614 0.774994 2.4612
                  CHANNELS 3 Zrotation Xrotation Yrotation
                  JOINT RightHandIndex2
                  {
                    OFFSET -3.3146 -0.808304 0.5841
                    CHANNELS 3 Zrotation Xrotation Yrotation
                    JOINT RightHandIndex3
                    {
                      OFFSET -2.2628 -0.552002 0.3989
                      CHANNELS 3 Zrotation Xrotation Yrotation
                      End Site
                      {
                        OFFSET -1.6102 -0.4807 0.2612
                      }
                    }
                  }
                }
                JOINT RightHandMiddle1
                {
                  OFFSET -8.9937 0.894989 0.2143
                  CHANNELS 3 Zrotation Xrotation Yrotation
                  JOINT RightHandMiddle2
                  {
                    OFFSET -4.0984 0.0113983 -0.0242
                    CHANNELS 3 Zrotation Xrotation Yrotation
                    JOINT RightHandMiddle3
                    {
                      OFFSET -2.2716 0.00691223 -0.0138001
                      CHANNELS 3 Zrotation Xrotation Yrotation
                      End Site
                      {
                        OFFSET -2.0404 -0.1441 0.0027
                      }
                    }
                  }
                }
                JOINT RightHandRing1
                {
                  OFFSET -8.5234 0.597198 -2.0164
                  CHANNELS 3 Zrotation Xrotation Yrotation
                  JOINT RightHandRing2
                  {
                    OFFSET -3.7188 -0.188309 -0.2328
                    CHANNELS 3 Zrotation Xrotation Yrotation
                    JOINT RightHandRing3
                    {
                      OFFSET -2.1191 -0.106598 -0.1332
                      CHANNELS 3 Zrotation Xrotation Yrotation
                      End Site
                      {
                        OFFSET -1.8737 -0.2304 -0.0886
                      }
                    }
                  }
                }
                JOINT RightHandPinky1
                {
                  OFFSET -7.9094 -0.601105 -3.4825
                  CHANNELS 3 Zrotation Xrotation Yrotation
                  JOINT RightHandPinky2
                  {
                    OFFSET -2.2874 -0.477005 -0.6314
                    CHANNELS 3 Zrotation Xrotation Yrotation
                    JOINT RightHandPinky3
                    {
                      OFFSET -1.6774 -0.349396 -0.4633
                      CHANNELS 3 Zrotation Xrotation Yrotation
                      End Site
                      {
                        OFFSET -1.4888 -0.4091 -0.3416
                      }
                    }
                  }
                }
                JOINT RightHandThumb1
                {
                  OFFSET -1.833 -1.38751 1.3896
                  CHANNELS 3 Zrotation Xrotation Yrotation
                  JOINT RightHandThumb2
                  {
                    OFFSET -3.41299 -1.12099 2.5732
                    CHANNELS 3 Zrotation Xrotation Yrotation
                    JOINT RightHandThumb3
                    {
                      OFFSET -2.24741 -0.804108 1.6192
                      CHANNELS 3 Zrotation Xrotation Yrotation
                      End Site
                      {
                        OFFSET -1.6527 -0.5689 1.1317
                      }
                    }
                  }
                }
              }
            }
          }
        }
      }
    }
  }
  JOINT RightUpLeg
  {
    OFFSET -9.1966 3.8861 -0.7581
    CHANNELS 3 Zrotation Xrotation Yrotation
    JOINT RightLeg
    {
      OFFSET -0.7359 -41.0265 0
      CHANNELS 3 Zrotation Xrotation Yrotation
      JOINT RightFoot
      {
        OFFSET 0 -40.2855 0
        CHANNELS 3 Zrotation Xrotation Yrotation
        JOINT RightToeBase
        {
          OFFSET 0 -5.6122 11.7359
          CHANNELS 3 Zrotation Xrotation Yrotation
          End Site
          {
            OFFSET 0 0 7.8731
          }
        }
      }
    }
  }
  JOINT LeftUpLeg
  {
    OFFSET 9.1965 3.8864 -0.7581
    CHANNELS 3 Zrotation Xrotation Yrotation
    JOINT LeftLeg
    {
      OFFSET 0.7359 -41.0268 0
      CHANNELS 3 Zrotation Xrotation Yrotation
      JOINT LeftFoot
      {
        OFFSET 0 -40.2855 0
        CHANNELS 3 Zrotation Xrotation Yrotation
        JOINT LeftToeBase
        {
          OFFSET 0 -5.6122 11.7359
          CHANNELS 3 Zrotation Xrotation Yrotation
          End Site
          {
            OFFSET 0 0 7.8731
          }
        }
      }
    }
  }
}
MOTION
Frames:	5
Frame Time:	0.0333333
39.604 37.9361 20.0997 -179.997 75.0068 2.55082e-010 0.0518949 9.3033 1.93999 -0.224949 18.6029 3.95118 -0.224949 18.6029 3.95118 -9.92208 3.48037 11.9643 -7.85202 -20.8263 -9.12312 -12.1288 -17.255 -22.8721 -6.0105 -12.7472 -1.91058 11.1528 78.8521 -94.5223 -7.38001 -10.0472 35.5444 -5.54401e-008 -3.69718e-008 2.91521e-009 -4.43521e-008 -2.95774e-008 2.33218e-009 -5.54401e-008 -3.69718e-008 2.9152e-009 -5.54401e-008 -3.69718e-008 2.91521e-009 -0.0146238 -8.91908e-005 -6.037e-006 -5.54401e-008 -3.69721e-008 2.91056e-009 -5.54401e-008 -3.69718e-008 2.91521e-009 -0.0187478 -0.00117567 6.5568e-005 -5.54401e-008 -3.69722e-008 2.90974e-009 -5.54401e-008 -3.69718e-008 2.91521e-009 -0.0122493 -0.00324214 0.000674775 -5.54403e-008 -3.69718e-008 2.91283e-009 -5.54401e-008 -3.69718e-008 2.91521e-009 -4.43521e-008 -2.95774e-008 2.33218e-009 -5.54401e-008 -3.69718e-008 2.9152e-009 7.58888 -6.50867 1.62043 16.8519 -8.97588 33.7155 23.7575 19.5033 49.7044 26.4063 -42.2912 -1.5517 -1.59028e-015 2.38542e-015 -3.18055e-015 2.7623e-006 2.54565e-006 -1.0998e-006 1.14627e-006 1.99693e-006 3.14896e-007 -1.59028e-015 2.38542e-015 -3.18055e-015 0.0149298 -9.3966e-005 2.61153e-006 -1.14421e-006 -1.99698e-006 -3.14634e-007 -1.59028e-015 2.38542e-015 -3.18055e-015 0.0190975 -0.00119914 -6.09425e-005 -7.95139e-015 5.56597e-015 -0 -1.59028e-015 2.38542e-015 -3.18055e-015 0.0121944 -0.00322844 -0.00067048 1.14458e-006 1.99742e-006 3.14744e-007 -1.59028e-015 2.38542e-015 -3.18055e-015 2.7623e-006 2.54565e-006 -1.0998e-006 1.14627e-006 1.99693e-006 3.14896e-007 -38.7386 16.7992 -26.4517 -70.2118 39.9103 71.0302 33.3316 14.4359 9.00441 1.72906e-006 -3.47618e-008 -6.91136e-009 72.9632 -52.4773 125.248 72.1155 39.7299 -72.7395 -4.4395 21.347 2.89509 1.59028e-015 -1.59028e-015 -1.98785e-016 
39.6048 37.9352 20.0998 -179.997 75.0068 2.55082e-010 0.0459986 9.31606 1.93507 -0.236634 18.6283 3.94235 -0.236633 18.6282 3.94235 -9.90202 3.49331 11.9053 -7.6736 -20.6241 -9.05897 -11.5583 -17.7334 -22.9732 -6.01051 -12.7472 -1.91058 11.209 78.8059 -95.0192 -6.79016 -10.3744 35.7989 -2.38542e-015 2.38542e-015 3.18055e-015 4.43989e-008 2.94791e-008 -2.64696e-009 7.95139e-016 0 6.36111e-015 -2.38542e-015 2.38542e-015 3.18055e-015 -0.0146164 -8.87343e-005 -2.7421e-006 0 3.97569e-016 -0 -2.38542e-015 2.38542e-015 3.18055e-015 -0.0187359 -0.00117519 5.28035e-005 -7.95139e-016 2.78299e-015 -0 -2.38542e-015 2.38542e-015 3.18055e-015 -0.0123074 -0.00325953 0.00068076 -7.95139e-016 7.95139e-016 -0 -2.38542e-015 2.38542e-015 3.18055e-015 4.43989e-008 2.94791e-008 -2.64696e-009 7.95139e-016 0 6.36111e-015 7.10619 -7.039 1.39346 16.8519 -8.97588 33.7155 23.8223 19.58 49.9019 26.3447 -42.6081 -1.09493 4.77083e-015 -1.43125e-014 3.18055e-015 6.36111e-015 -3.97569e-015 3.18055e-015 -3.18055e-015 -3.18055e-015 -0 4.77083e-015 -1.43125e-014 3.18055e-015 0.0150144 -8.77261e-005 1.62921e-006 -9.54166e-015 -3.97569e-015 3.18055e-015 4.77083e-015 -1.43125e-014 3.18055e-015 0.0190279 -0.00119452 -6.00307e-005 1.27222e-014 -1.03368e-014 -6.36111e-015 4.77083e-015 -1.43125e-014 3.18055e-015 0.0121529 -0.00322463 -0.000672392 -7.95139e-015 -7.15625e-015 3.18055e-015 4.77083e-015 -1.43125e-014 3.18055e-015 6.36111e-015 -3.97569e-015 3.18055e-015 -3.18055e-015 -3.18055e-015 -0 -39.251 16.6023 -26.9973 -70.2174 39.9076 71.0192 32.6262 14.7992 9.67428 9.3434e-008 -4.08915e-007 7.65485e-008 73.2342 -52.5016 125.467 72.1156 39.7299 -72.7396 -4.4396 21.347 2.89511 1.10342e-006 -5.92504e-007 1.13115e-006 
39.6058 37.934 20.0998 -179.997 75.0068 2.55082e-010 0.0386969 9.33203 1.92887 -0.251091 18.6599 3.93122 -0.251092 18.6599 3.93122 -9.88256 3.50601 11.8466 -7.49559 -20.4217 -8.99554 -10.8445 -18.3326 -23.095 -6.01051 -12.7472 -1.91058 11.2755 78.7477 -95.6368 -6.04929 -10.7801 36.1218 8.89026e-008 5.87162e-008 -6.07689e-009 6.88941e-007 8.86432e-008 1.13856e-005 -8.89026e-008 -5.87163e-008 6.07689e-009 8.89026e-008 5.87162e-008 -6.07689e-009 -0.014607 -8.8432e-005 7.72661e-006 -8.89027e-008 -5.8717e-008 6.06948e-009 8.89026e-008 5.87162e-008 -6.07689e-009 -0.0188075 -0.00118033 5.3408e-005 -8.89027e-008 -5.87172e-008 6.06818e-009 8.89026e-008 5.87162e-008 -6.07689e-009 -0.0122152 -0.00323251 0.000690653 -8.89029e-008 -5.87164e-008 6.07317e-009 8.89026e-008 5.87162e-008 -6.07689e-009 6.88941e-007 8.86432e-008 1.13856e-005 -8.89026e-008 -5.87163e-008 6.07689e-009 6.49827 -7.70006 1.10421 16.8519 -8.9759 33.7155 23.9028 19.6758 50.149 26.2731 -43.0042 -0.520327 -0 -6.36111e-015 -0 -1.59028e-015 -7.15625e-015 -0 1.59028e-015 -7.95139e-015 -3.18055e-015 -0 -6.36111e-015 -0 0.0149847 -8.72796e-005 -1.16594e-006 -1.59028e-015 -3.97569e-015 3.18055e-015 -0 -6.36111e-015 -0 0.0189497 -0.00118644 -6.24561e-005 3.18055e-015 -9.54166e-015 -3.18055e-015 -0 -6.36111e-015 -0 0.0122826 -0.00325406 -0.00067995 -1.31678e-006 -1.9484e-006 -1.26986e-007 -0 -6.36111e-015 -0 -1.59028e-015 -7.15625e-015 -0 1.59028e-015 -7.95139e-015 -3.18055e-015 -39.8946 16.3608 -27.6809 -70.2246 39.9052 71.0057 31.7348 15.2433 10.5194 -4.06278e-006 -1.14266e-006 -4.98712e-008 73.5733 -52.5311 125.741 72.1156 39.7299 -72.7397 -4.43964 21.347 2.89505 -9.31784e-007 4.27611e-007 -1.20104e-006 
39.6067 37.933 20.0999 -179.997 75.0068 2.55082e-010 0.0321691 9.3464 1.92322 -0.264002 18.6885 3.92105 -0.264001 18.6885 3.92105 -9.86301 3.51864 11.7879 -7.31798 -20.219 -8.93285 -10.2003 -18.8737 -23.1974 -6.0105 -12.7472 -1.91057 11.3326 78.6953 -96.19 -5.37938 -11.1419 36.4178 -4.44934e-007 -2.925e-007 3.38904e-008 8.89868e-008 5.84999e-008 -6.77809e-009 -8.89868e-008 -5.84999e-008 6.77809e-009 -4.44934e-007 -2.925e-007 3.38904e-008 -0.0146211 -8.82659e-005 2.28294e-006 -9.29861e-008 -2.25926e-007 -1.78566e-006 -4.44934e-007 -2.925e-007 3.38904e-008 -0.0187902 -0.00117684 5.74248e-005 -9.35559e-008 -2.26005e-007 -1.78566e-006 -4.44934e-007 -2.925e-007 3.38904e-008 -0.0123031 -0.00325797 0.000678139 -8.89871e-008 -5.85002e-008 6.77434e-009 -4.44934e-007 -2.925e-007 3.38904e-008 8.89868e-008 5.84999e-008 -6.77809e-009 -8.89868e-008 -5.84999e-008 6.77809e-009 5.94721 -8.29259 0.836715 16.8519 -8.97591 33.7155 23.975 19.7624 50.3713 26.2125 -43.3615 -0.000651948 4.12913e-006 3.34431e-006 -9.10269e-007 -2.77581e-006 -3.09188e-007 1.02931e-006 2.72593e-006 1.42249e-006 -9.43385e-007 4.12913e-006 3.34431e-006 -9.10269e-007 0.0150232 -9.67427e-005 -1.61567e-006 4.1272e-006 3.3442e-006 -9.1071e-007 4.12913e-006 3.34431e-006 -9.10269e-007 0.0189984 -0.00119193 -5.50386e-005 2.72611e-006 1.42232e-006 -9.43649e-007 4.12913e-006 3.34431e-006 -9.10269e-007 0.0123047 -0.00325843 -0.00067525 1.32454e-006 -4.99914e-007 -9.76585e-007 4.12913e-006 3.34431e-006 -9.10269e-007 -2.77581e-006 -3.09188e-007 1.02931e-006 2.72593e-006 1.42249e-006 -9.43385e-007 -40.4761 16.1502 -28.2987 -70.231 39.9027 70.9937 30.9248 15.6317 11.2887 -3.97569e-015 -3.18055e-015 -3.18055e-015 73.879 -52.5568 125.989 72.1156 39.7299 -72.7398 -4.43979 21.3469 2.89506 -2.21492e-006 1.18423e-006 -2.25418e-006 
39.6076 37.932 20.1 -179.997 75.0068 2.55082e-010 0.0256883 9.3608 1.91751 -0.276804 18.717 3.91075 -0.276804 18.717 3.91075 -9.8428 3.53144 11.7289 -7.14077 -20.016 -8.87089 -9.55465 -19.4162 -23.2938 -6.01051 -12.7472 -1.91058 11.3869 78.6428 -96.7405 -4.70644 -11.5004 36.7185 8.82781e-032 1.59028e-015 -3.18055e-015 -1.59028e-015 1.19271e-015 -3.18055e-015 1.59028e-015 1.59028e-015 -3.18055e-015 8.82781e-032 1.59028e-015 -3.18055e-015 -0.0145977 -8.88411e-005 4.81101e-007 3.18055e-015 2.78299e-015 1.27222e-014 8.82781e-032 1.59028e-015 -3.18055e-015 -0.0187243 -0.00117272 6.78608e-005 1.59028e-015 -3.97569e-016 3.18055e-015 8.82781e-032 1.59028e-015 -3.18055e-015 -0.012269 -0.00324757 0.000675421 -6.62086e-032 -1.19271e-015 -3.18055e-015 8.82781e-032 1.59028e-015 -3.18055e-015 -1.59028e-015 1.19271e-015 -3.18055e-015 1.59028e-015 1.59028e-015 -3.18055e-015 5.39225 -8.88287 0.562921 16.8519 -8.97589 33.7155 24.0469 19.8493 50.5936 26.156 -43.7193 0.521741 -2.73111e-006 -1.41002e-006 9.26353e-007 2.73111e-006 1.41002e-006 -9.26353e-007 -2.73111e-006 -1.41002e-006 9.26353e-007 -2.73111e-006 -1.41002e-006 9.26353e-007 0.0149541 -8.79352e-005 -3.38509e-006 -8.17548e-008 1.12324e-006 1.4976e-007 -2.73111e-006 -1.41002e-006 9.26353e-007 0.0189246 -0.00118349 -5.30354e-005 -8.14433e-008 1.12316e-006 1.49718e-007 -2.73111e-006 -1.41002e-006 9.26353e-007 0.0121331 -0.00321272 -0.000668851 -2.7312e-006 -1.4099e-006 9.26586e-007 -2.73111e-006 -1.41002e-006 9.26353e-007 2.73111e-006 1.41002e-006 -9.26353e-007 -2.73111e-006 -1.41002e-006 9.26353e-007 -41.0597 15.9455 -28.9183 -70.2376 39.9001 70.982 30.1074 16.0095 12.0655 -1.63611e-006 -3.72402e-007 8.16806e-008 74.1849 -52.5817 126.236 72.1157 39.7299 -72.7399 -4.43986 21.3469 2.89505 -2.21874e-006 1.18385e-006 -2.25032e-006 
